<?xml version="1.0" standalone="no"?>
<!DOCTYPE svg PUBLIC "-//W3C//DTD SVG 20010904//EN"
 "http://www.w3.org/TR/2001/REC-SVG-20010904/DTD/svg10.dtd">
<svg version="1.0" xmlns="http://www.w3.org/2000/svg"
 width="640.000000pt" height="640.000000pt" viewBox="0 0 640.000000 640.000000"
 preserveAspectRatio="xMidYMid meet">

<g transform="translate(0.000000,640.000000) scale(0.100000,-0.100000)"
fill="#000000" stroke="none">
<path d="M0 5575 l0 -825 3200 0 3200 0 0 825 0 825 -3200 0 -3200 0 0 -825z"/>
<path d="M1598 4733 c881 -2 2323 -2 3205 0 881 1 160 2 -1603 2 -1763 0
-2484 -1 -1602 -2z"/>
<path d="M0 3200 l0 -1510 3200 0 3200 0 0 1510 0 1510 -3200 0 -3200 0 0
-1510z m4570 735 c67 -159 131 -302 141 -316 10 -14 33 -33 51 -42 32 -16 31
-17 -82 -17 -63 0 -126 -3 -140 -6 -23 -5 -22 -4 5 12 54 30 54 33 4 163 l-31
82 -106 -3 -106 -3 -33 -94 c-19 -51 -31 -102 -28 -112 3 -10 18 -22 33 -27
21 -8 0 -11 -91 -13 -64 -2 -117 -3 -117 -2 0 1 19 11 43 21 51 23 42 5 197
377 127 306 120 290 130 278 4 -4 63 -138 130 -298z m-3122 260 c123 -55 188
-162 186 -305 -3 -143 -75 -259 -199 -317 -54 -25 -71 -28 -165 -28 -93 0
-112 3 -162 27 -283 132 -252 546 48 642 79 25 214 17 292 -19z m-758 15 c105
-1 112 -2 84 -14 -17 -8 -34 -21 -38 -31 -3 -9 -6 -135 -6 -279 0 -212 -3
-273 -16 -317 -26 -88 -89 -159 -173 -195 -52 -22 -54 -17 -7 29 26 27 53 67
67 103 22 56 23 74 27 339 2 183 0 290 -7 308 -7 18 -26 35 -53 48 -24 11 -32
17 -18 14 14 -2 77 -5 140 -5z m2277 -24 c72 -34 95 -72 90 -150 -3 -57 -6
-61 -56 -108 -63 -58 -63 -63 7 -183 59 -101 152 -196 212 -218 l45 -17 -55 6
c-66 8 -121 28 -177 66 -56 38 -95 87 -144 182 l-41 78 -37 -6 c-20 -3 -42 -6
-48 -6 -17 0 -18 -189 -2 -224 7 -14 24 -30 38 -35 19 -7 -2 -10 -84 -10 -60
-1 -121 -4 -135 -6 -15 -3 -8 2 16 14 23 10 44 27 48 36 10 28 7 544 -4 565
-5 10 -23 21 -40 25 -68 15 -29 20 138 17 162 -2 180 -4 229 -26z m476 12 c13
-13 98 -104 188 -202 90 -98 186 -202 212 -230 l48 -51 -6 218 c-3 121 -10
228 -16 238 -5 11 -23 22 -40 26 -16 3 -32 10 -36 16 -4 6 0 8 11 4 10 -4 63
-8 119 -8 56 -1 93 -4 82 -6 -28 -7 -46 -23 -56 -50 -5 -13 -9 -156 -9 -318
-1 -162 -5 -295 -10 -295 -5 0 -125 124 -267 275 l-258 275 -3 -229 c-1 -128
2 -240 7 -254 7 -17 23 -29 50 -38 39 -13 34 -14 -84 -14 -86 0 -116 3 -97 9
64 20 62 12 62 318 0 265 -1 279 -20 298 -11 11 -30 21 -42 22 -13 1 11 4 52
8 41 4 78 7 82 8 4 1 18 -8 31 -20z m1703 10 c-6 -4 -19 -8 -28 -8 -9 0 -24
-10 -32 -22 -14 -19 -16 -63 -16 -279 0 -319 -6 -304 130 -301 110 3 140 16
170 74 l22 43 -7 -40 c-11 -72 -26 -115 -38 -116 -88 -6 -482 -2 -465 5 13 4
33 12 46 17 12 5 27 20 32 35 6 14 10 135 10 272 0 288 -1 290 -78 318 -14 6
31 9 122 9 79 0 139 -3 132 -7z m-3156 -8 c-60 -14 -61 -21 -58 -265 3 -206 4
-223 26 -262 43 -82 154 -123 237 -89 50 21 72 41 98 91 20 37 22 58 25 250 3
235 -1 252 -58 272 -31 10 -20 12 85 12 91 -1 112 -3 88 -10 -18 -5 -38 -19
-45 -32 -8 -14 -14 -95 -18 -237 -7 -224 -11 -248 -56 -308 -41 -53 -96 -75
-199 -80 -74 -3 -100 0 -147 18 -65 24 -111 70 -128 127 -6 21 -14 135 -17
253 -3 118 -9 222 -14 231 -5 10 -26 21 -46 27 -30 8 -7 10 112 10 99 0 138
-3 115 -8z m3616 0 c10 0 9 -5 -6 -20 -13 -13 -20 -33 -20 -60 l0 -40 66 0 66
0 -4 55 -3 55 30 0 c25 -1 27 -2 13 -11 -13 -7 -18 -23 -18 -54 l0 -45 70 0
c55 0 71 3 79 18 8 13 10 3 11 -41 0 -53 -1 -57 -16 -43 -12 13 -41 16 -149
16 -127 0 -135 -1 -149 -22 -15 -21 -16 -15 -16 91 0 99 2 112 16 107 9 -3 22
-6 30 -6z m209 -299 c35 -20 78 -79 71 -98 -3 -7 -1 -13 4 -13 11 0 14 -79 4
-104 -3 -9 -11 -13 -17 -9 -7 4 -8 0 -4 -11 10 -26 -49 -82 -101 -95 -31 -9
-53 -9 -83 -1 -46 13 -79 30 -79 43 0 4 10 1 23 -8 59 -41 147 -39 199 6 25
22 22 22 -37 -5 -55 -25 -123 -18 -172 20 -21 15 -32 20 -24 11 8 -10 9 -17 3
-17 -10 0 -23 26 -21 44 0 5 -4 12 -11 16 -16 10 -14 123 3 156 44 85 155 115
242 65z m-5224 -651 c75 -21 109 -101 74 -174 -19 -40 -53 -63 -100 -67 -58
-4 -75 1 -111 37 -35 35 -36 39 -32 92 4 48 10 60 38 83 18 16 45 30 59 32 14
2 28 5 31 5 3 1 21 -3 41 -8z m652 -7 c4 -2 7 -11 7 -19 0 -13 -3 -13 -22 0
-12 9 -39 16 -59 16 -92 0 -123 -139 -45 -202 26 -22 84 -23 113 -3 19 14 21
13 16 -4 -10 -37 -118 -33 -172 7 -53 39 -59 134 -12 176 41 37 133 52 174 29z
m229 7 c11 0 35 -15 54 -34 28 -28 34 -42 34 -75 0 -103 -91 -163 -185 -122
-80 35 -99 129 -39 192 29 30 78 51 102 43 8 -2 23 -4 34 -4z m558 -14 c35
-16 64 -78 56 -121 -20 -107 -156 -146 -228 -65 -23 25 -28 40 -28 81 0 46 4
55 35 85 47 44 99 50 165 20z m311 8 c4 -2 9 -13 12 -25 l6 -21 -23 21 c-57
54 -156 4 -156 -79 0 -47 21 -95 49 -110 27 -14 88 -13 93 2 3 7 1 29 -2 50
-7 36 -6 38 19 38 26 0 26 -1 21 -52 -5 -52 -5 -53 -44 -59 -71 -12 -135 13
-166 64 -24 38 -25 68 -6 106 19 35 37 50 83 67 32 11 92 10 114 -2z m2499
-13 c72 -51 65 -167 -13 -207 -38 -20 -103 -22 -135 -5 -32 17 -62 70 -62 110
0 25 32 100 43 101 1 0 20 7 42 15 46 16 89 12 125 -14z m523 7 c25 -13 57
-68 57 -99 0 -76 -54 -130 -133 -131 -136 -3 -177 177 -54 233 42 19 90 18
130 -3z m309 6 c4 -3 8 -12 8 -20 0 -13 -3 -13 -22 0 -83 59 -185 -39 -144
-137 18 -45 51 -67 99 -67 l39 0 -4 50 c-3 48 -2 50 22 50 25 0 25 -2 20 -52
-5 -52 -5 -53 -45 -59 -104 -18 -185 37 -185 125 0 44 47 102 94 114 30 9 102
6 118 -4z m-4804 -84 l82 -91 0 85 c0 58 -4 86 -12 89 -7 3 3 5 22 5 19 0 29
-2 23 -5 -9 -3 -13 -37 -13 -121 l0 -117 -101 100 -101 100 4 -97 c3 -73 1
-98 -8 -98 -9 0 -14 33 -16 120 -3 115 -2 120 17 120 13 0 51 -34 103 -90z
m822 80 c-7 -4 -10 -44 -8 -111 l3 -104 38 -3 c21 -2 45 2 53 9 11 9 14 8 14
-5 0 -13 -13 -16 -77 -16 l-78 0 3 114 c3 104 1 115 -15 119 -10 2 4 4 30 4
26 0 43 -3 37 -7z m804 -3 c-2 -7 7 -35 22 -61 29 -52 29 -52 65 17 11 21 17
42 14 47 -3 6 5 10 18 10 25 0 24 -1 -20 -67 -41 -63 -44 -72 -40 -120 3 -49
2 -53 -18 -53 -21 0 -22 4 -18 43 4 35 -1 53 -32 107 -20 36 -43 71 -52 78
-14 10 -11 12 25 12 30 0 40 -4 36 -13z m420 7 c27 -10 19 -53 -13 -72 l-30
-17 26 -47 c15 -27 30 -48 34 -48 12 0 22 46 14 59 -4 7 6 11 25 11 l32 0 -32
-40 c-35 -44 -33 -55 14 -76 l31 -15 -35 7 c-19 3 -62 5 -96 5 -61 -2 -82 9
-96 50 -7 19 17 79 32 79 7 0 9 12 4 35 -10 57 34 91 90 69z m318 -105 c-3
-85 0 -114 10 -120 8 -6 -4 -9 -32 -9 -28 0 -40 3 -32 9 10 6 13 35 10 120
l-3 111 25 0 25 0 -3 -111z m175 44 c17 -38 34 -78 37 -90 4 -13 11 -23 16
-23 5 0 28 41 51 90 31 67 47 90 61 90 14 0 17 -4 10 -15 -9 -17 8 -192 21
-212 6 -9 0 -13 -20 -13 -28 0 -28 1 -31 71 -4 110 -13 112 -57 14 -43 -97
-37 -99 -91 19 l-32 68 -12 -71 c-6 -40 -9 -78 -6 -86 4 -11 -2 -15 -20 -15
-23 0 -24 1 -11 23 8 12 20 55 26 96 10 63 9 77 -4 97 -15 23 -14 24 8 24 20
0 29 -11 54 -67z m368 -31 l40 -93 45 95 c58 122 74 125 77 16 2 -43 7 -97 12
-119 9 -40 8 -41 -18 -41 -24 0 -27 3 -23 33 1 17 -1 57 -6 87 l-9 55 -43 -89
-44 -88 -39 83 -40 84 -12 -70 c-9 -48 -10 -74 -3 -82 8 -10 4 -13 -15 -13
-24 0 -25 0 -11 39 7 22 16 68 20 103 5 54 4 67 -11 82 -17 17 -17 17 10 14
26 -3 33 -13 70 -96z m315 83 c-20 -24 -8 -169 15 -195 21 -24 72 -27 101 -6
16 12 20 29 23 100 2 58 -1 91 -9 101 -10 13 -9 15 11 15 l24 0 -6 -92 c-8
-109 -12 -121 -46 -139 -42 -23 -103 -16 -130 15 -20 24 -23 38 -23 110 0 50
-5 87 -12 94 -9 9 -4 12 26 12 33 0 37 -2 26 -15z m365 -70 c43 -47 81 -83 85
-80 7 4 4 106 -5 148 -2 13 3 17 23 17 20 0 23 -3 14 -12 -8 -8 -12 -50 -12
-122 l-1 -111 -94 96 -94 97 -3 -37 c-2 -20 -1 -62 2 -93 6 -57 5 -58 -19 -58
-19 0 -22 3 -13 12 16 16 16 200 0 216 -9 9 -6 12 14 12 20 0 44 -20 103 -85z
m568 78 c-9 -3 -13 -35 -13 -114 l0 -109 43 0 c24 0 49 6 56 13 11 10 13 9 9
-3 -3 -11 -23 -16 -79 -18 l-74 -3 3 108 c3 90 1 109 -13 119 -14 10 -8 12 32
11 26 0 42 -2 36 -4z m801 -6 c-2 -7 7 -35 22 -61 l27 -49 23 44 c13 24 23 52
24 62 0 12 8 17 26 17 23 0 24 -2 10 -15 -8 -8 -29 -40 -46 -70 -26 -46 -31
-64 -28 -105 3 -49 3 -50 -26 -50 -23 0 -27 3 -18 12 7 7 12 25 12 41 0 37
-75 174 -98 180 -9 3 4 5 30 6 35 1 46 -2 42 -12z m-4094 -490 c0 -14 -3 -18
-8 -10 -6 9 -49 12 -162 10 -164 -2 -191 -8 -165 -33 13 -13 15 -59 15 -289 0
-272 0 -274 22 -289 15 -11 43 -16 88 -15 61 1 62 2 22 8 -69 12 -76 25 -82
157 -4 95 -8 118 -22 128 -28 21 -21 26 34 26 93 0 176 20 197 46 26 33 31 30
31 -13 0 -25 -3 -33 -9 -24 -6 9 -10 10 -16 2 -4 -7 -2 -18 5 -26 6 -7 10 -29
8 -47 l-3 -33 -17 38 -17 37 -91 0 -92 0 4 -126 c4 -149 7 -154 102 -153 91 0
126 16 156 69 16 30 26 39 28 28 5 -24 -28 -129 -41 -133 -24 -8 -447 -13
-451 -6 -3 4 12 13 34 20 22 6 44 20 50 31 12 22 14 539 2 556 -11 16 -48 34
-71 34 -12 0 -21 5 -21 10 0 6 78 10 213 10 116 0 219 4 227 9 19 13 30 5 30
-22z m1608 8 c17 -36 14 -45 -3 -15 l-14 25 -1 -30 c0 -16 46 -153 102 -304
81 -215 108 -277 129 -291 21 -16 68 -26 127 -29 6 -1 12 -5 12 -9 0 -4 -63
-8 -140 -9 -77 -1 -140 2 -140 5 0 4 10 12 22 17 34 15 33 37 -2 136 l-33 90
-105 -3 -105 -3 -28 -75 c-40 -108 -36 -150 15 -150 10 0 16 -3 12 -7 -9 -10
-236 -12 -236 -3 0 4 18 12 39 19 53 15 68 39 139 216 80 200 173 428 179 438
8 14 20 7 31 -18z m-1120 -5 c32 -12 32 -13 32 -76 0 -36 -4 -64 -10 -64 -5 0
-10 9 -10 20 0 11 -15 36 -32 55 -27 29 -44 37 -97 47 -54 9 -69 8 -98 -6 -61
-29 -79 -119 -37 -184 8 -12 56 -53 107 -90 51 -38 106 -85 123 -104 40 -46
51 -102 30 -153 -21 -49 -20 -52 7 -29 12 10 7 2 -11 -18 -68 -73 -207 -86
-307 -29 l-49 28 3 64 c1 35 5 66 7 69 11 10 24 -27 18 -53 -13 -62 46 -104
146 -103 77 1 114 21 130 72 23 68 -2 106 -135 204 -109 81 -139 123 -139 195
0 83 35 129 122 161 42 16 146 13 200 -6z m652 3 c0 -43 -13 -123 -20 -123 -4
0 -10 13 -13 28 -8 39 -43 52 -137 52 l-80 0 0 -127 c0 -69 -2 -124 -4 -122
-2 2 -6 57 -8 121 -3 69 -10 123 -16 131 -17 20 23 27 141 27 70 0 95 -4 109
-17 17 -15 18 -15 18 6 l0 23 -159 -3 c-88 -2 -163 -7 -167 -12 -4 -4 -2 -13
4 -19 9 -9 12 -88 12 -283 0 -216 3 -275 14 -290 11 -15 28 -20 87 -21 62 -2
67 -1 30 5 -24 4 -49 15 -56 25 -7 9 -16 66 -20 129 -6 90 -11 116 -26 133
l-20 21 88 6 c109 8 153 21 175 50 17 21 18 20 18 -53 0 -41 -5 -82 -10 -90
-8 -12 -10 -11 -10 5 0 11 -7 31 -16 43 -14 20 -24 22 -100 22 l-84 0 0 -122
c0 -152 4 -158 99 -158 82 0 129 22 156 72 21 39 40 52 31 21 -2 -10 -12 -44
-20 -75 l-17 -58 -102 -1 c-56 -1 -160 -2 -230 -3 -71 -1 -130 1 -132 4 -3 4
13 12 34 19 67 20 66 16 66 305 0 287 -2 300 -57 311 -73 16 -43 20 172 25
124 3 231 7 238 8 6 1 12 -6 12 -15z m2148 4 c48 -2 47 1 36 -106 -7 -64 -18
-78 -28 -36 -34 136 -283 157 -392 32 -48 -54 -67 -123 -62 -221 7 -123 62
-215 160 -268 45 -24 27 -23 -21 1 -47 25 -97 81 -125 140 -17 38 -21 65 -21
151 0 93 3 111 25 154 29 56 80 101 136 121 26 10 32 14 17 15 -32 0 -106 -34
-145 -68 -18 -17 -47 -57 -64 -89 -26 -52 -29 -68 -29 -148 0 -106 24 -170 83
-228 58 -56 111 -74 222 -76 52 0 111 4 131 9 39 11 83 54 101 99 6 16 12 21
15 13 3 -7 2 -20 -3 -30 -4 -9 -6 -24 -5 -32 2 -13 1 -13 -8 0 -6 8 -11 10
-11 4 0 -7 -13 -26 -29 -43 -29 -31 -29 -31 -6 -31 13 0 26 6 28 13 4 7 6 8 6
1 2 -22 -27 -34 -108 -46 -201 -28 -378 47 -448 190 -25 50 -28 68 -28 152 0
84 3 101 28 147 47 91 119 148 227 179 32 10 79 12 160 8 63 -4 134 -7 158 -7z
m-4073 -14 l20 -12 -20 -1 c-19 0 -19 -1 3 -18 67 -52 83 -148 36 -217 -14
-21 -35 -47 -47 -57 l-22 -19 25 12 c24 12 25 11 8 -8 -25 -27 -23 -51 12
-119 35 -71 121 -164 178 -193 54 -27 59 -27 25 5 l-28 26 35 -25 c19 -14 49
-31 65 -38 l30 -13 -25 -4 c-45 -7 -128 18 -187 58 -66 44 -117 106 -163 200
l-32 65 -49 -3 -49 -4 0 -96 c0 -118 11 -142 68 -160 23 -8 42 -18 42 -22 0
-11 -309 -9 -316 1 -2 5 13 13 35 19 66 17 65 15 66 294 0 138 -3 263 -7 277
-8 26 -44 49 -78 49 -11 0 -20 5 -20 11 0 16 368 8 395 -8z m3158 3 c63 -15
92 -31 36 -19 l-34 6 36 -34 c74 -70 73 -165 -2 -240 -22 -22 -32 -36 -22 -31
16 9 19 7 20 -11 2 -16 0 -18 -6 -8 -7 10 -10 8 -16 -9 -12 -39 55 -158 129
-227 58 -55 139 -102 119 -70 -4 7 5 4 20 -5 14 -10 33 -18 41 -18 8 0 18 -5
22 -12 13 -20 -112 0 -171 27 -71 34 -150 121 -197 216 l-36 75 -49 -5 -48 -6
2 -108 c1 -67 7 -114 14 -123 6 -8 32 -19 57 -26 29 -7 40 -14 31 -18 -17 -10
-309 -9 -309 0 0 4 18 14 40 23 27 10 43 25 50 43 7 18 10 121 8 282 -3 253
-3 254 -27 273 -13 10 -34 19 -47 19 -12 0 -26 5 -29 10 -10 16 299 12 368 -4z
m1362 4 c-3 -5 -15 -10 -26 -10 -11 0 -31 -11 -44 -25 -24 -23 -25 -31 -25
-135 l0 -110 175 0 175 0 0 103 c0 117 -11 147 -57 162 -63 21 -44 25 110 25
110 0 157 -3 157 -11 0 -7 -11 -9 -29 -6 -17 4 -50 -1 -76 -9 -25 -9 -55 -14
-66 -11 -19 5 -20 4 -5 -12 14 -15 16 -54 16 -282 0 -203 3 -269 13 -283 9
-12 29 -19 60 -21 25 -2 55 -6 66 -10 50 -16 11 -22 -129 -22 -145 0 -193 8
-130 22 58 13 70 43 70 176 l0 119 -175 0 -175 0 0 -123 c0 -140 8 -161 65
-171 20 -4 33 -11 31 -15 -7 -10 -306 -10 -306 0 0 5 17 13 38 19 62 16 63 24
60 319 -3 262 -3 263 -27 282 -13 10 -34 19 -47 19 -12 0 -26 5 -29 10 -4 7
50 10 155 10 105 0 159 -3 155 -10z m-3775 -25 c7 -8 16 -12 21 -9 5 3 9 -15
9 -40 0 -25 -4 -46 -10 -46 -5 0 -10 7 -10 15 0 9 -11 27 -25 40 -22 23 -32
25 -115 25 l-90 0 -2 -127 -2 -128 -3 120 c-3 90 -7 123 -19 136 -15 16 -13
18 13 22 15 2 71 5 124 6 75 1 99 -2 109 -14z m4161 -11 c-20 -25 -21 -39 -21
-281 0 -174 4 -261 12 -276 10 -20 10 -21 -5 -8 -15 12 -17 43 -17 273 0 255
4 290 34 310 19 13 18 9 -3 -18z m-4856 6 c3 -6 -1 -7 -9 -4 -18 7 -21 14 -7
14 6 0 13 -4 16 -10z m1035 -4 c0 -2 -8 -10 -17 -17 -16 -13 -17 -12 -4 4 13
16 21 21 21 13z m-971 -61 c-3 -2 -16 10 -29 28 l-23 32 29 -27 c15 -15 26
-30 23 -33z m2364 -105 c36 -85 84 -203 108 -263 26 -64 56 -120 74 -139 21
-22 24 -28 9 -20 -11 6 -26 17 -32 25 -11 13 -232 542 -232 555 0 15 14 -16
73 -158z m826 77 c-1 -18 -2 -17 -9 7 -5 15 -15 36 -22 45 -7 9 -3 6 10 -7 12
-13 22 -33 21 -45z m-2262 21 c-3 -8 -6 -5 -6 6 -1 11 2 17 5 13 3 -3 4 -12 1
-19z m-927 -105 c-11 -17 -11 -17 -6 0 3 10 7 37 8 60 l1 42 4 -42 c2 -24 -1
-51 -7 -60z m927 65 c-3 -8 -6 -5 -6 6 -1 11 2 17 5 13 3 -3 4 -12 1 -19z
m2248 -85 c-9 -15 -13 -19 -9 -8 4 11 9 34 13 50 4 25 6 26 9 8 2 -12 -4 -34
-13 -50z m-2180 7 c10 -11 16 -20 13 -20 -3 0 -13 9 -23 20 -10 11 -16 20 -13
20 3 0 13 -9 23 -20z m85 -66 c0 -3 -13 4 -30 16 -16 12 -30 24 -30 26 0 3 14
-4 30 -16 17 -12 30 -24 30 -26z m70 -50 c0 -3 -13 4 -30 16 -16 12 -30 24
-30 26 0 3 14 -4 30 -16 17 -12 30 -24 30 -26z m-1174 -157 c5 -7 1 -4 -10 7
-19 21 -76 129 -76 143 0 4 18 -25 39 -64 21 -40 42 -79 47 -86z m3138 81 c15
-27 25 -48 22 -48 -7 0 -56 84 -56 95 0 11 1 9 34 -47z m-1897 -85 c-3 -10 -5
-2 -5 17 0 19 2 27 5 18 2 -10 2 -26 0 -35z m1948 1 c9 -15 12 -23 6 -20 -11
7 -35 46 -28 46 3 0 12 -12 22 -26z m-3150 -44 c10 -11 16 -20 13 -20 -3 0
-13 9 -23 20 -10 11 -16 20 -13 20 3 0 13 -9 23 -20z m859 -35 l28 -40 -31 33
c-17 18 -31 37 -31 44 0 6 1 9 3 7 2 -2 15 -22 31 -44z m2366 -10 c30 -30 52
-55 49 -55 -2 0 -29 25 -59 55 -30 30 -52 55 -49 55 2 0 29 -25 59 -55z"/>
<path d="M4427 4126 c-9 -22 194 -546 211 -546 6 0 12 3 12 7 0 8 -199 521
-210 542 -6 10 -8 10 -13 -3z"/>
<path d="M4405 4069 c-6 -19 -71 -190 -80 -211 -6 -16 1 -18 84 -18 50 0 91 3
91 7 0 8 -81 226 -86 232 -2 2 -6 -2 -9 -10z"/>
<path d="M1120 4184 c-62 -30 -128 -98 -159 -164 -22 -46 -26 -69 -26 -140 0
-73 4 -92 28 -138 32 -61 95 -125 149 -153 55 -28 59 -23 7 9 -56 36 -102 88
-130 149 -35 75 -33 198 5 280 31 68 95 135 151 159 46 19 68 17 30 -3 -85
-44 -126 -123 -133 -255 -11 -207 94 -358 250 -358 82 0 136 38 179 126 32 64
34 75 34 169 0 71 -5 115 -18 152 -21 60 -84 136 -136 163 -20 10 -30 19 -22
20 29 0 101 -52 131 -95 49 -71 62 -119 63 -225 1 -147 -46 -255 -130 -299
-21 -11 -34 -20 -30 -21 17 -1 83 40 109 67 15 15 39 55 55 88 25 54 28 71 28
165 0 92 -3 112 -26 160 -29 61 -83 121 -131 146 -22 12 -61 17 -132 18 -84 1
-108 -3 -146 -20z"/>
<path d="M1178 3563 c7 -3 16 -2 19 1 4 3 -2 6 -13 5 -11 0 -14 -3 -6 -6z"/>
<path d="M638 3873 l-3 -318 -27 -65 -27 -65 25 30 c13 17 33 59 44 94 18 57
20 92 20 352 0 245 -2 289 -14 289 -12 0 -15 -50 -18 -317z"/>
<path d="M2660 3885 c0 -298 0 -305 20 -305 20 0 20 7 20 305 0 298 0 305 -20
305 -20 0 -20 -7 -20 -305z"/>
<path d="M2750 4025 l0 -168 41 7 c56 9 111 39 144 78 24 28 27 39 23 84 -7
88 -71 148 -169 161 l-39 6 0 -168z"/>
<path d="M2885 4167 c59 -33 85 -78 85 -146 0 -32 -5 -62 -12 -69 -6 -6 -9
-14 -6 -17 3 -4 16 8 29 26 49 69 20 168 -61 209 -55 28 -85 25 -35 -3z"/>
<path d="M2870 3839 c0 -22 71 -145 111 -192 37 -43 128 -107 153 -107 5 0
-15 18 -45 39 -62 45 -115 112 -161 206 -29 58 -58 85 -58 54z"/>
<path d="M3347 4177 c4 -8 127 -141 273 -296 172 -183 266 -276 268 -266 4 18
6 16 -306 348 -118 125 -221 227 -229 227 -9 0 -11 -5 -6 -13z"/>
<path d="M4980 3885 c0 -264 2 -305 15 -305 13 0 15 41 15 305 0 264 -2 305
-15 305 -13 0 -15 -41 -15 -305z"/>
<path d="M1842 3942 l3 -249 27 -40 c29 -45 77 -78 123 -87 l30 -6 -27 13
c-36 17 -86 65 -106 102 -14 25 -18 69 -20 273 -3 207 -6 242 -19 242 -13 0
-14 -33 -11 -248z"/>
<path d="M2038 3553 c7 -3 16 -2 19 1 4 3 -2 6 -13 5 -11 0 -14 -3 -6 -6z"/>
<path d="M5653 4043 c42 -2 112 -2 155 0 42 1 7 3 -78 3 -85 0 -120 -2 -77 -3z"/>
<path d="M5665 3875 c-22 -8 -52 -27 -66 -43 -22 -25 -25 -36 -23 -88 3 -69 5
-83 13 -82 3 1 23 -6 43 -15 74 -33 180 -16 223 35 22 26 26 39 23 85 -3 64
-29 95 -93 112 -51 14 -71 13 -120 -4z m60 -15 c-67 -7 -101 -22 -128 -54
l-18 -21 11 23 c16 33 85 62 145 60 l50 -1 -60 -7z m117 -22 c13 -13 17 -18 8
-11 -8 7 -27 16 -40 22 -17 6 -19 10 -8 10 9 1 27 -9 40 -21z"/>
<path d="M5855 3649 c-4 -6 -5 -12 -2 -15 2 -3 7 2 10 11 7 17 1 20 -8 4z"/>
<path d="M491 3221 c-42 -42 -35 -153 12 -186 28 -19 81 -19 101 0 17 17 37
80 31 98 -2 7 -6 24 -9 39 -14 62 -94 90 -135 49z"/>
<path d="M1371 3214 c-22 -27 -26 -47 -22 -99 7 -75 59 -115 119 -90 58 25 68
139 17 191 -34 34 -87 33 -114 -2z"/>
<path d="M1912 3233 c-21 -8 -42 -59 -42 -101 0 -24 9 -52 23 -73 19 -28 30
-35 64 -37 56 -4 83 29 83 104 0 68 -34 114 -83 113 -18 0 -38 -3 -45 -6z"/>
<path d="M4701 3221 c-42 -42 -38 -131 6 -175 51 -52 124 -23 138 54 8 42 -18
116 -46 130 -29 16 -78 11 -98 -9z"/>
<path d="M5231 3218 c-42 -45 -35 -150 12 -183 23 -16 74 -20 94 -7 20 13 42
77 38 110 -5 41 -30 88 -50 96 -33 12 -75 6 -94 -16z"/>
<path d="M2860 3205 c0 -37 13 -46 28 -19 12 22 4 54 -14 54 -9 0 -14 -12 -14
-35z"/>
<path d="M2827 3109 c-12 -44 25 -92 64 -82 15 4 13 11 -18 51 -19 26 -36 48
-38 50 -1 1 -5 -7 -8 -19z"/>
<path d="M1711 2146 c-8 -10 -9 -16 -1 -21 5 -3 13 1 16 10 9 22 -1 29 -15 11z"/>
<path d="M3262 2613 c-12 -29 -35 -87 -51 -130 -16 -43 -32 -86 -36 -95 -6
-16 0 -18 67 -18 91 0 142 15 133 39 -39 98 -84 220 -87 236 -2 15 -9 6 -26
-32z m9 -50 c-12 -20 -14 -14 -5 12 4 9 9 14 11 11 3 -2 0 -13 -6 -23z m-30
-80 c-12 -20 -14 -14 -5 12 4 9 9 14 11 11 3 -2 0 -13 -6 -23z m-30 -84 c-5
-13 -10 -19 -10 -12 -1 15 10 45 15 40 3 -2 0 -15 -5 -28z"/>
<path d="M3120 2245 c-23 -57 -39 -108 -36 -113 3 -5 14 -12 24 -14 15 -4 17
0 14 26 -2 18 9 66 27 113 44 121 20 111 -29 -12z"/>
<path d="M2218 2708 c5 -7 12 -22 15 -33 3 -13 5 -9 6 13 1 23 -3 32 -15 32
-12 0 -14 -3 -6 -12z"/>
<path d="M2822 2440 c0 -14 2 -19 5 -12 2 6 2 18 0 25 -3 6 -5 1 -5 -13z"/>
<path d="M2858 2150 c-11 -12 -13 -22 -7 -26 12 -7 15 -5 23 24 9 26 7 26 -16
2z"/>
<path d="M5026 2727 c-19 -14 -19 -18 -6 -57 l14 -43 9 33 c4 17 7 43 5 57 -3
22 -5 23 -22 10z"/>
<path d="M740 2733 c-14 -9 -28 -22 -32 -27 -4 -6 -8 -131 -8 -277 0 -265 0
-266 23 -287 13 -12 33 -22 46 -22 l22 0 -20 26 c-20 26 -21 39 -21 303 0 202
3 280 12 289 17 17 7 15 -22 -5z"/>
<path d="M760 2559 l0 -161 37 7 c53 10 106 39 138 77 24 29 27 38 23 90 -4
49 -9 63 -37 92 -33 34 -86 56 -135 56 l-26 0 0 -161z"/>
<path d="M3918 2732 l-28 -17 0 -282 c0 -280 0 -282 22 -297 12 -9 31 -16 42
-16 19 0 19 0 0 21 -18 19 -19 42 -22 295 -2 184 0 280 8 294 13 24 12 24 -22
2z"/>
<path d="M3940 2560 c0 -179 -5 -169 76 -145 195 58 156 305 -48 305 l-28 0 0
-160z"/>
<path d="M5352 2729 c-13 -5 -36 -6 -50 -3 -23 4 -24 3 -9 -6 15 -10 17 -35
17 -295 0 -271 1 -285 19 -295 11 -5 30 -10 42 -10 21 0 21 1 6 18 -14 15 -17
40 -17 129 0 95 -3 114 -20 136 -11 14 -20 28 -20 31 0 3 62 6 138 7 75 0 146
4 157 9 13 5 -31 9 -117 9 l-138 1 0 118 c0 90 4 123 16 140 16 24 12 26 -24
11z"/>
<path d="M1598 1663 c881 -2 2323 -2 3205 0 881 1 160 2 -1603 2 -1763 0
-2484 -1 -1602 -2z"/>
<path d="M0 825 l0 -825 3200 0 3200 0 0 825 0 825 -3200 0 -3200 0 0 -825z"/>
</g>
</svg>
